<?xml version="1.0" encoding="UTF-8"?>
<svg id="Layer_2" data-name="Layer 2" xmlns="http://www.w3.org/2000/svg" viewBox="0 0 587.6 587.6">
  <defs>
    <style>
      .cls-1 {
        fill: #e32628;
      }

      .cls-2 {
        fill: #f7b21a;
      }

      .cls-3 {
        fill: #fff;
      }

      .cls-4 {
        fill: #009949;
      }

      .cls-5 {
        fill: #246db4;
      }
    </style>
  </defs>
  <g id="Layer_1-2" data-name="Layer 1">
    <g>
      <rect class="cls-3" width="587.6" height="587.6" rx="73.77" ry="73.77"/>
      <g>
        <path class="cls-2" d="M248.37,191.67c-5.03,0-9.8-2.97-11.85-7.9-6.25-15.01-14.05-24.66-23.83-29.51-6.35-3.14-8.95-10.84-5.81-17.2,3.15-6.35,10.84-8.95,17.2-5.81,15.58,7.71,27.4,21.66,36.14,42.65,2.73,6.54-.37,14.06-6.91,16.78-1.61.67-3.29.99-4.93.99Z"/>
        <path class="cls-2" d="M169.28,329.66c-4.66,0-9.15-2.54-11.42-6.96-10.96-21.3-12.35-47.35-3.7-69.7,2.92-7.62,6.99-15.05,12.07-22.04,10.25-14.02,28.26-26.93,49.42-35.46,6.57-2.64,14.05.54,16.7,7.11,2.65,6.58-.54,14.05-7.11,16.7-16.59,6.68-30.9,16.69-38.27,26.77-3.79,5.22-6.7,10.51-8.86,16.14-8.97,23.16-.3,43.15,2.57,48.72,3.24,6.3.76,14.04-5.54,17.29-1.88.97-3.89,1.43-5.86,1.43Z"/>
        <path class="cls-1" d="M244.87,419.79c-9.48,0-20.06-3.57-30.84-10.44-5.98-3.81-7.73-11.75-3.92-17.72,3.81-5.98,11.75-7.73,17.72-3.92,7.1,4.52,13.7,6.84,18.16,6.36,2.1-.23,4.59-1.22,7.74-2.48,6.45-2.57,15.28-6.09,28.75-6.16h.18c13.6,0,22.52,3.55,29.04,6.15,3.17,1.26,5.68,2.26,7.74,2.47.37.04.75.06,1.15.06,9.85,0,28.42-11.66,45.13-34.31,19.15-25.97,34.59-65.5,20.49-98.58-3.38-7.95-10.43-17.37-19.35-25.85-5.14-4.88-5.34-13.01-.46-18.15,4.88-5.14,13.01-5.34,18.15-.46,6.69,6.36,18.86,19.28,25.28,34.41,8.3,19.47,9.72,42.25,4.1,65.85-4.76,19.97-14.28,40.04-27.55,58.02-9.88,13.39-21.15,24.64-32.6,32.54-13.07,9.01-25.83,13.17-36.92,12.02-5.6-.56-10.2-2.39-14.65-4.16-5.59-2.23-10.87-4.33-19.51-4.33h-.12c-8.58.04-13.8,2.12-19.34,4.33-4.37,1.74-8.9,3.55-14.48,4.15-1.27.14-2.57.21-3.88.21Z"/>
        <path class="cls-4" d="M298.21,224.03c-1.23,0-2.45-.03-3.68-.09-4.59-.22-8.72-2.88-10.81-6.97-12.67-24.74-11.2-54.59,3.85-77.91,15.05-23.32,41.66-36.94,69.38-35.52,4.57.23,8.67,2.88,10.76,6.95,12.7,24.68,11.23,54.5-3.83,77.83-14.36,22.25-39.27,35.7-65.67,35.7ZM347.9,129.37c-15.7,1.55-30.09,10.18-38.77,23.62-8.68,13.44-10.62,30.13-5.6,45.1,15.71-1.6,30.11-10.25,38.78-23.69,8.68-13.45,10.62-30.11,5.59-45.03Z"/>
        <path class="cls-4" d="M156.31,405c-.62,0-1.23-.04-1.85-.13-3.6-.52-6.81-2.55-8.83-5.58l-43.65-65.46c-3.93-5.9-2.34-13.87,3.56-17.8,5.9-3.93,13.87-2.34,17.8,3.56l35.74,53.6,100.8-83.8c5.45-4.53,13.54-3.79,18.08,1.67,4.53,5.45,3.79,13.54-1.67,18.08l-111.77,92.92c-2.32,1.93-5.23,2.96-8.21,2.96Z"/>
        <path class="cls-5" d="M280.89,489.77c-38.76,0-76.2-11.35-108.27-32.83-5.89-3.95-7.47-11.92-3.52-17.81,3.95-5.89,11.92-7.47,17.81-3.52,27.83,18.64,60.33,28.5,93.99,28.5,93.26,0,169.14-75.87,169.14-169.14,0-46.08-18.2-89.15-51.25-121.28-5.08-4.94-5.2-13.07-.26-18.15,4.94-5.08,13.07-5.2,18.15-.26,38.06,37,59.02,86.61,59.02,139.69,0,107.42-87.39,194.81-194.81,194.81Z"/>
      </g>
    </g>
  </g>
</svg>